# WaveFront *.obj file (generated by CINEMA 4D)

mtllib ./未标题_7.mtl

v -102.81256103515625 103.30805206298828 -0.68966233730316
v -102.81256103515625 102.31005859375 -0.75299853086472
v -102.81256103515625 102.77738952636719 -0.22233429551125
v -103.31256103515625 102.80905914306641 -0.72133040428162
v -102.81256103515625 102.84072875976562 -1.22032654285431
v -102.31256103515625 102.80905914306641 -0.72133040428162
# 6 vertices

vn -0.57734853029251 0.53962570428848 0.61275833845139
vn 0 0 0
vn -0.577352643013 -0.6127552986145 0.53962469100952
vn -0.57734960317612 0.61276131868362 -0.53962117433548
vn -0.57735133171082 -0.53962004184723 -0.61276072263718
vn 0.57734960317612 0.61276131868362 -0.53962117433548
vn 0.57735133171082 -0.53962004184723 -0.61276072263718
vn 0.57734853029251 0.53962570428848 0.61275833845139
vn 0.57735276222229 -0.6127552986145 0.53962469100952
# 9 normals

vt 0 0 0
vt 0 0.5 0
vt 0.25 0.5 0
vt 0 1 0
vt 0.25 0 0
vt 0.5 0.5 0
vt 0.25 1 0
vt 0.5 0 0
vt 0.75 0.5 0
vt 0.5 1 0
vt 0.75 0 0
vt 1 0.5 0
vt 0.75 1 0
# 13 texture coordinates

o 球体.1_0
usemtl default
f 4/3/1 3/2/1 1/1/1
f 2/4/3 3/2/3 4/3/3
f 5/6/4 4/3/4 1/5/4
f 2/7/5 4/3/5 5/6/5
f 6/9/6 5/6/6 1/8/6
f 2/10/7 5/6/7 6/9/7
f 3/12/8 6/9/8 1/11/8
f 2/13/9 6/9/9 3/12/9

