<svg id="图层_1" data-name="图层 1" xmlns="http://www.w3.org/2000/svg" viewBox="0 0 500 500"><defs><style>.cls-1{fill:#fff;}.cls-2{fill:#1a7cc4;}</style></defs><title>ICON</title><path class="cls-1" d="M320.9,333.24a27,27,0,0,1-2.31,11.17,29.46,29.46,0,0,1-6.37,9.13A30,30,0,0,1,291,362.08h-82.2a30,30,0,0,1-21.18-8.54,29.43,29.43,0,0,1-6.36-9.13A26.89,26.89,0,0,1,179,333.24V167.18a27.72,27.72,0,0,1,2.32-11.29,29.08,29.08,0,0,1,6.36-9.26,30,30,0,0,1,21.18-8.53H291a30,30,0,0,1,21.18,8.53,29.11,29.11,0,0,1,6.37,9.26,27.88,27.88,0,0,1,2.31,11.29ZM302.15,178.71H197.5V321.46H302.15ZM249.83,328.19a11.55,11.55,0,0,0-8.45,3.61,12.06,12.06,0,0,0-3.59,8.89,12.21,12.21,0,0,0,3.59,8.77,11.36,11.36,0,0,0,8.45,3.72,11.24,11.24,0,0,0,8.56-3.72,12.43,12.43,0,0,0,3.47-8.77,12.28,12.28,0,0,0-3.47-8.89,11.43,11.43,0,0,0-8.56-3.61Zm18.52-169.91a3.9,3.9,0,0,0-1.16-3,3.64,3.64,0,0,0-2.55-1.07h-29.4a3.81,3.81,0,0,0-2.43,1.07,3.75,3.75,0,0,0-1.28,3,3.89,3.89,0,0,0,1.17,3,3.62,3.62,0,0,0,2.54,1.08h29.4a3.64,3.64,0,0,0,2.55-1.08,3.88,3.88,0,0,0,1.16-3Zm0,0"/><path class="cls-2" d="M250,500A250,250,0,0,1,73.22,73.22,250,250,0,0,1,426.78,426.78,248.36,248.36,0,0,1,250,500Zm0-474.54A224.53,224.53,0,0,0,91.23,408.77,224.53,224.53,0,1,0,408.77,91.23,223,223,0,0,0,250,25.46Z"/></svg>